<?xml version="1.0" encoding="utf-8"?>
<!-- Generator: Adobe Illustrator 18.1.0, SVG Export Plug-In . SVG Version: 6.00 Build 0)  -->
<svg version="1.1" xmlns="http://www.w3.org/2000/svg" xmlns:xlink="http://www.w3.org/1999/xlink" x="0px" y="0px"
	 viewBox="0 0 24 24" enable-background="new 0 0 24 24" xml:space="preserve">
<g id="Layer_2">
</g>
<g id="Layer_1">
	<g>
		<path d="M20.5,2.4H3.5c-0.6,0-1.1,0.5-1.1,1.1v17.1c0,0.6,0.5,1.1,1.1,1.1h9.2v-7.4h-2.5v-2.9h2.5V9.1c0-2.5,1.5-3.8,3.7-3.8
			c1.1,0,2,0.1,2.2,0.1V8l-1.5,0c-1.2,0-1.4,0.6-1.4,1.4v1.9h2.9l-0.4,2.9h-2.5v7.4h4.9c0.6,0,1.1-0.5,1.1-1.1V3.5
			C21.6,2.9,21.1,2.4,20.5,2.4L20.5,2.4z"/>
	</g>
</g>
</svg>
