<?xml version="1.0" encoding="utf-8"?>
<!-- Generator: Adobe Illustrator 18.1.0, SVG Export Plug-In . SVG Version: 6.00 Build 0)  -->
<svg version="1.1" xmlns="http://www.w3.org/2000/svg" xmlns:xlink="http://www.w3.org/1999/xlink" x="0px" y="0px"
	 viewBox="0 0 24 24" enable-background="new 0 0 24 24" xml:space="preserve">
<g id="Layer_2">
</g>
<g id="Layer_1">
	<g>
		<g>
			<path d="M12,3.2c-2.4,0-2.7,0-3.6,0.1c-0.9,0-1.6,0.2-2.1,0.4c-0.6,0.2-1.1,0.5-1.6,1c-0.5,0.5-0.8,1-1,1.6
				C3.4,6.8,3.3,7.4,3.3,8.4c0,0.9-0.1,1.2-0.1,3.6c0,2.4,0,2.7,0.1,3.6c0,0.9,0.2,1.6,0.4,2.1c0.2,0.6,0.5,1.1,1,1.6
				c0.5,0.5,1,0.8,1.6,1c0.6,0.2,1.2,0.4,2.1,0.4c0.9,0,1.2,0.1,3.6,0.1c2.4,0,2.7,0,3.6-0.1c0.9,0,1.6-0.2,2.1-0.4
				c0.6-0.2,1.1-0.5,1.6-1c0.5-0.5,0.8-1,1-1.6c0.2-0.6,0.4-1.2,0.4-2.1c0-0.9,0.1-1.2,0.1-3.6c0-2.4,0-2.7-0.1-3.6
				c0-0.9-0.2-1.6-0.4-2.1c-0.2-0.6-0.5-1.1-1-1.6c-0.5-0.5-1-0.8-1.6-1c-0.6-0.2-1.2-0.4-2.1-0.4C14.7,3.2,14.4,3.2,12,3.2L12,3.2
				L12,3.2z M12,4.8c2.3,0,2.6,0,3.6,0.1c0.9,0,1.3,0.2,1.6,0.3c0.4,0.2,0.7,0.4,1,0.7c0.3,0.3,0.5,0.6,0.7,1
				c0.1,0.3,0.3,0.8,0.3,1.6c0,0.9,0.1,1.2,0.1,3.6c0,2.3,0,2.6-0.1,3.6c0,0.9-0.2,1.3-0.3,1.6c-0.2,0.4-0.4,0.7-0.7,1
				c-0.3,0.3-0.6,0.5-1,0.7c-0.3,0.1-0.8,0.3-1.6,0.3c-0.9,0-1.2,0.1-3.6,0.1c-2.3,0-2.6,0-3.6-0.1c-0.9,0-1.3-0.2-1.6-0.3
				c-0.4-0.2-0.7-0.4-1-0.7c-0.3-0.3-0.5-0.6-0.7-1c-0.1-0.3-0.3-0.8-0.3-1.6c0-0.9-0.1-1.2-0.1-3.6c0-2.3,0-2.6,0.1-3.6
				c0-0.9,0.2-1.3,0.3-1.6c0.2-0.4,0.4-0.7,0.7-1c0.3-0.3,0.6-0.5,1-0.7C7.1,5,7.6,4.9,8.4,4.8C9.4,4.8,9.7,4.8,12,4.8"/>
			<path d="M12,14.9c-1.6,0-2.9-1.3-2.9-2.9c0-1.6,1.3-2.9,2.9-2.9c1.6,0,2.9,1.3,2.9,2.9C14.9,13.6,13.6,14.9,12,14.9L12,14.9z
				 M12,7.5c-2.5,0-4.5,2-4.5,4.5c0,2.5,2,4.5,4.5,4.5c2.5,0,4.5-2,4.5-4.5C16.5,9.5,14.5,7.5,12,7.5L12,7.5z"/>
			<path d="M17.8,7.3c0,0.6-0.5,1.1-1.1,1.1c-0.6,0-1.1-0.5-1.1-1.1c0-0.6,0.5-1.1,1.1-1.1C17.3,6.2,17.8,6.7,17.8,7.3L17.8,7.3z"/>
		</g>
	</g>
</g>
</svg>
