<?xml version="1.0" encoding="utf-8"?>
<!-- Generator: Adobe Illustrator 18.1.0, SVG Export Plug-In . SVG Version: 6.00 Build 0)  -->
<svg version="1.1" xmlns="http://www.w3.org/2000/svg" xmlns:xlink="http://www.w3.org/1999/xlink" x="0px" y="0px"
	 viewBox="0 0 24 24" enable-background="new 0 0 24 24" xml:space="preserve">
<g id="Layer_2">
</g>
<g id="Layer_1">
	<path d="M18.9,11.9c0,0,2.8-3.9,3-5.2C22.1,6.2,21.9,6,21.4,6c0,0-1.6,0-2.4,0c-0.5,0-0.8,0.2-0.9,0.6c0,0-1.3,2.8-2.9,4.5
		c-0.5,0.6-0.8,0.7-1,0.7c-0.2,0-0.3-0.2-0.3-0.7V6.7c0-0.6-0.1-0.8-0.6-0.8H9.4C9.1,5.9,8.9,6,8.9,6.3c0,0.6,0.9,0.7,0.9,2.3v3.3
		c0,0.7,0,0.9-0.3,0.9c-0.8,0-2.8-2.8-3.9-6.1C5.4,6,5.1,5.9,4.5,5.9H2.1c-0.3,0-0.6,0.2-0.6,0.6c0,0.6,0.8,3.6,3.7,7.6
		c2,2.7,4.6,4.1,6.9,4.1c1.4,0,1.8-0.2,1.8-0.8v-2.1c0-0.5,0.2-0.7,0.5-0.7c0.3,0,0.9,0.1,2.3,1.4c1.6,1.5,1.7,2.2,2.6,2.2H22
		c0.3,0,0.5-0.1,0.5-0.6c0-0.6-0.8-1.7-2-3c-0.5-0.7-1.3-1.4-1.6-1.7C18.6,12.5,18.7,12.3,18.9,11.9L18.9,11.9z"/>
</g>
</svg>
